<!DOCTYPE svg PUBLIC "-//W3C//DTD SVG 1.1//EN" "http://www.w3.org/Graphics/SVG/1.1/DTD/svg11.dtd">
<!-- Uploaded to: SVG Repo, www.svgrepo.com, Transformed by: SVG Repo Mixer Tools -->
<svg fill="#000000" width="800px" height="800px" viewBox="0 0 24 24" xmlns="http://www.w3.org/2000/svg" stroke="#000000">

<g id="SVGRepo_bgCarrier" stroke-width="0"/>

<g id="SVGRepo_tracerCarrier" stroke-linecap="round" stroke-linejoin="round"/>

<g id="SVGRepo_iconCarrier"> <path d="M20.474 19.013a8.941 8.941 0 0 0-4.115-4.89 6 6 0 1 0-8.717 0 8.941 8.941 0 0 0-4.115 4.89 11.065 11.065 0 0 0 1.63 1.59 6.965 6.965 0 0 1 4.728-5.275 1 1 0 0 0 .181-1.829 4 4 0 1 1 3.871 0 1 1 0 0 0 .181 1.829 6.965 6.965 0 0 1 4.726 5.272 11.059 11.059 0 0 0 1.63-1.587z"/> </g>

</svg>